<?xml version="1.0" encoding="utf-8"?>
<!-- Generator: Adobe Illustrator 16.0.0, SVG Export Plug-In . SVG Version: 6.00 Build 0)  -->
<!DOCTYPE svg PUBLIC "-//W3C//DTD SVG 1.1//EN" "http://www.w3.org/Graphics/SVG/1.1/DTD/svg11.dtd">
<svg version="1.1" id="Layer_1" xmlns="http://www.w3.org/2000/svg" xmlns:xlink="http://www.w3.org/1999/xlink" x="0px" y="0px"
	 width="800px" height="200px" viewBox="0 0 800 200" enable-background="new 0 0 800 200" xml:space="preserve">
<g>
	<path fill-rule="evenodd" clip-rule="evenodd" fill="#6D578F" d="M102.781,15.39l-4.977,28.66H85.99l-2.549,15.706h11.813
		l-8.646,51.15c-0.819,5.003-1.24,9.587-1.066,13.548c0.767,17.476,10.864,24.96,23.335,24.96c11.233,0,31.66-4.574,42.043-38.508
		h-6.05c-2.666,10.423-12.521,18.343-20.647,18.343c-5.833,0-8.624-1.877-8.88-7.712c-0.083-1.876,0.034-3.96,0.54-6.67
		l9.337-55.111h16.329l2.554-15.706h-16.331l5.643-32.813L102.781,15.39z"/>
	<path fill-rule="evenodd" clip-rule="evenodd" fill="#6D578F" d="M156.158,44.053l-17.513,104.031h30.004
		c0,0,12.547-75.381,12.599-75.519c1.57-4.255,9.204-10.384,15.454-10.384c6.252,0,1.021,12.652,12.689,12.652
		c10.21,0,14.653-7.907,14.334-15.189c-0.347-7.899-5.686-15.592-15.061-15.592c-10.003,0-17.627,6.653-24.645,12.89l2.142-12.89
		H156.158z"/>
	<path fill-rule="evenodd" clip-rule="evenodd" fill="#6D578F" d="M233.433,44.232L222.2,110.957
		c-0.646,4.987-1.066,9.562-0.893,13.511c0.767,17.462,10.864,24.946,23.335,24.946c11.231,0,31.657-4.574,42.045-38.457h-8.752
		c-2.668,10.392-9.821,18.292-17.947,18.292c-5.833,0-8.625-1.873-8.88-7.692c-0.083-1.87,0.034-3.948,0.54-6.65l11.897-70.674
		H233.433z M236.387,16.608c0.4,9.134,8.002,16.4,17.157,16.4c9.157,0,16.327-7.267,15.924-16.4C269.068,7.472,261.25,0,252.096,0
		C242.938,0,235.987,7.472,236.387,16.608z"/>
	<path fill-rule="evenodd" clip-rule="evenodd" fill="#6D578F" d="M346.708,44.066l-32.157,22.942L325.492,2.47l-30.654,4.161
		L270.85,148.223h30.004l8.57-51.53c5.622-4.799,10.286-7.721,15.078-7.721c5.417,0,7.674,3.964,7.94,10.014
		c0.101,2.297,0.011,5.01-0.493,7.721l-1.31,8.138c-0.74,3.972-0.999,7.518-0.853,10.857c0.668,15.189,10.192,23.713,27.246,23.713
		c9.578,0,26.298-3.533,36.636-38.529h-8.752c-4.106,10.85-7.526,18.364-16.694,18.364c-6.459,0-8.282-3.548-8.464-7.724
		c-0.101-2.293,0.423-4.59,0.747-6.676l1.833-10.435c0.619-2.711,0.707-5.424,0.599-7.93c-0.587-13.33-8.115-24.34-23.522-24.34
		c-2.291,0,38.049-28.079,38.049-28.079H346.708z"/>
	<path fill-rule="evenodd" clip-rule="evenodd" fill="#6D578F" d="M395.554,44.232l-11.235,66.725
		c-0.644,4.987-1.067,9.562-0.894,13.511c0.767,17.462,10.865,24.946,23.335,24.946c11.233,0,31.66-4.574,42.045-38.457h-8.749
		c-2.669,10.392-9.823,18.292-17.949,18.292c-5.834,0-8.624-1.873-8.881-7.692c-0.08-1.87,0.036-3.948,0.543-6.65l11.895-70.674
		H395.554z M398.506,16.608c0.403,9.134,8.005,16.4,17.16,16.4c9.154,0,16.324-7.267,15.924-16.4C431.188,7.472,423.369,0,414.215,0
		S398.105,7.472,398.506,16.608z"/>
	<path fill-rule="evenodd" clip-rule="evenodd" fill="#6D578F" d="M497.468,72.844c0.524,13.321-7.729,38.92-7.107,53.073
		c0.522,11.855,7.494,23.497,25.626,23.497c11.044,0,26.896-4.363,37.063-38.482h-8.749c-4.108,10.824-7.53,18.317-16.698,18.317
		c-6.25,0-8.489-3.54-8.719-8.742c-0.537-11.639,8.313-36.833,7.573-53.698c-0.729-16.596-10.781-23.434-24.06-23.434
		c-6.433,0-15.528,1.658-23.842,11.602l1.817-10.771h-30.001l-17.516,104.018h30.004l11.231-66.838
		c2.666-10.411,7.908-19.157,15.409-19.157c4.999,0,7.665,3.749,7.967,10.62V72.844z"/>
	<path fill-rule="evenodd" clip-rule="evenodd" fill="#6D578F" d="M571.028,177.003c-0.366-8.297,9.19-13.689,19.644-17.633
		l-0.985,6.016c-2.171,12.239-6.898,18.462-11.274,18.462C573.829,183.848,571.154,179.906,571.028,177.003z M598.016,55.934
		c6.666,0,8.572,5.415,8.883,7.707l-8.458,49.361c-2.45,10.622-10.329,16.247-15.956,16.247c-3.748,0-10.426-0.209-11.13-16.247
		C570.493,93.425,580.305,55.934,598.016,55.934z M610.193,44.183l-1.82,10.72l-0.053-1.235c-0.264-5.98-5.463-10.516-17.34-10.516
		c-36.241,0-51.551,44.648-50.313,72.768c1.087,24.764,14.997,33.495,29.148,33.495c10.833,0,18.739-4.989,24.499-11.434
		L592.299,149c-15.402,4.771-33.354,13.483-32.589,30.906C560.301,193.374,571.22,200,583.929,200
		c13.751,0,31.008-5.592,35.955-35.235l2.468-14.936c12.764-3.533,28.252-11.434,35.17-38.909h-8.752
		c-5.037,18.12-12.436,25.188-24.943,29.763l16.385-96.5H610.193z"/>
	<path fill-rule="evenodd" clip-rule="evenodd" fill="#6D578F" d="M666.166,6.636L648.509,110.93
		c-0.819,4.995-1.242,9.575-1.066,13.53c0.767,17.47,10.864,24.954,23.335,24.954c11.231,0,31.658-4.574,42.043-38.484h-8.75
		c-2.668,10.407-9.82,18.319-17.947,18.319c-5.833,0-8.625-1.875-8.879-7.702c-0.084-1.874,0.033-3.956,0.539-6.664L696.804,2.47
		L666.166,6.636z"/>
	<path fill-rule="evenodd" clip-rule="evenodd" fill="#6D578F" d="M726.616,177.003c-0.364-8.297,9.19-13.689,19.644-17.633
		l-0.986,6.016c-2.17,12.239-6.897,18.462-11.273,18.462C729.418,183.848,726.742,179.906,726.616,177.003z M765.743,44.05
		l-11.591,68.119c-2.695,9.787-7.791,17.08-15.502,17.08c-4.792,0-6.443-4.374-6.652-9.167c-0.074-1.666,0.052-3.54,0.396-5.207
		l11.889-70.825h-29.978l-11.201,66.868c-0.819,4.997-1.242,9.583-1.068,13.54c0.746,17.472,10.866,24.956,23.369,24.956
		c7.082,0,16.169-1.872,24.488-11.642L747.887,149c-15.416,4.771-33.367,13.483-32.604,30.906
		C715.875,193.374,726.792,200,739.504,200c13.75,0,31.004-5.592,35.954-35.235l2.468-14.936
		c12.764-3.533,18.32-9.762,20.456-16.117c2.19-6.517,1.522-11.463,1.522-11.463c-2.465,5.395-7.996,13.859-20.504,18.434
		l16.378-96.633H765.743z"/>
	<path fill-rule="evenodd" clip-rule="evenodd" fill="#6D578F" d="M65.584,46.043c-5.629-3.449-13.373-4.704-20.154-4.704
		c-14.189,0-34.715,4.496-35.746,27.195l0.198,4.495c0.021,0.449,0.914,5.393,1.699,7.866c0.254,0.673,0.99,2.022,1.253,2.922
		c4.009,9.214,15.765,15.282,23.423,20.453c4.88,3.37,7.073,7.19,7.233,10.787c0.335,7.643-4.569,13.936-13.128,13.936
		c-5.856,0-10.754-3.82-11.042-10.339c-0.167-3.82,1.683-7.867,5.138-11.237c-3.908-1.8-5.476-1.572-8.403-1.572
		c-12.84,0-16.431,10.563-16.026,19.776c0.9,20.452,17.707,23.824,31.671,23.824c21.173,0,40.914-7.192,39.689-35.062
		c-1.174-26.747-35.822-20.679-36.78-42.479c-0.155-3.533,0.501-6.162,2.009-7.981c2.518-2.534,5.773-2.37,10.014-2.37
		c6.289,0,1.015,13.541,12.75,13.541c10.269,0,14.745-7.81,14.428-15.007C73.56,54.355,70.698,48.734,65.584,46.043z"/>
</g>
</svg>
